<svg width="41" height="35" viewBox="0 0 41 35" fill="none" xmlns="http://www.w3.org/2000/svg">
<g clip-path="url(#clip0_11_362)">
<g clip-path="url(#clip1_11_362)">
<path d="M35.73 0H4.92C2.21 0 0 2.21 0 4.92V24.6C0 27.31 2.21 29.51 4.92 29.52H18.97V32.07H14.9C14.15 32.07 13.54 32.68 13.54 33.43C13.54 34.18 14.15 34.79 14.9 34.79L25.74 34.67C26.49 34.67 27.1 34.06 27.1 33.31C27.1 32.56 26.49 31.95 25.74 31.95H21.67V29.52H35.72C38.43 29.52 40.63 27.31 40.64 24.6V4.92C40.64 2.21 38.43 0.01 35.72 0H35.73ZM37.94 24.59C37.94 25.81 36.95 26.8 35.73 26.8H4.92C3.7 26.8 2.71 25.81 2.71 24.59V4.92C2.71 3.7 3.7 2.71 4.92 2.71H35.73C36.95 2.71 37.94 3.7 37.94 4.92V24.6V24.59Z" fill="black"/>
</g>
<g clip-path="url(#clip2_11_362)">
<path d="M35.73 0H4.92C2.21 0 0 2.21 0 4.92V24.6C0 27.31 2.21 29.51 4.92 29.52H18.97V32.07H14.9C14.15 32.07 13.54 32.68 13.54 33.43C13.54 34.18 14.15 34.79 14.9 34.79L25.74 34.67C26.49 34.67 27.1 34.06 27.1 33.31C27.1 32.56 26.49 31.95 25.74 31.95H21.67V29.52H35.72C38.43 29.52 40.63 27.31 40.64 24.6V4.92C40.64 2.21 38.43 0.01 35.72 0H35.73ZM37.94 24.59C37.94 25.81 36.95 26.8 35.73 26.8H4.92C3.7 26.8 2.71 25.81 2.71 24.59V4.92C2.71 3.7 3.7 2.71 4.92 2.71H35.73C36.95 2.71 37.94 3.7 37.94 4.92V24.6V24.59Z" fill="black"/>
</g>
</g>
<defs>
<clipPath id="clip0_11_362">
<rect width="40.46" height="34.77" fill="white" transform="translate(0 0.199951)"/>
</clipPath>
<clipPath id="clip1_11_362">
<rect width="40.65" height="34.77" fill="white"/>
</clipPath>
<clipPath id="clip2_11_362">
<rect width="40.65" height="34.77" fill="white"/>
</clipPath>
</defs>
</svg>
