<svg width="41" height="35" viewBox="0 0 41 35" fill="none" xmlns="http://www.w3.org/2000/svg">
<g clip-path="url(#clip0_11_253)">
<path d="M20.23 22.32C19.18 22.32 18.16 22.12 17.2 21.72L2.92001 15.64C1.15001 14.9 0.0100098 13.18 0.0100098 11.26C0.0100098 9.33995 1.15001 7.61995 2.92001 6.87995L17.2 0.799951C18.16 0.399951 19.18 0.199951 20.23 0.199951C21.28 0.199951 22.3 0.399951 23.26 0.799951L37.54 6.87995C39.31 7.61995 40.45 9.33995 40.45 11.26C40.45 13.18 39.31 14.9 37.54 15.64L23.26 21.72C22.3 22.12 21.28 22.32 20.23 22.32ZM18.42 18.8C18.99 19.04 19.6 19.16 20.23 19.16C20.86 19.16 21.47 19.04 22.04 18.8L36.32 12.72C36.91 12.47 37.29 11.9 37.29 11.26C37.29 10.62 36.91 10.05 36.32 9.79995L22.04 3.71995C21.47 3.47995 20.86 3.35995 20.23 3.35995C19.6 3.35995 18.99 3.47995 18.42 3.71995L4.14001 9.79995C3.55001 10.05 3.17001 10.62 3.17001 11.26C3.17001 11.9 3.55001 12.47 4.14001 12.72L18.42 18.8Z" fill="black"/>
<path d="M20.23 34.9599C19.18 34.9599 18.16 34.7599 17.2 34.3599L2.91 28.2799C1.14 27.5299 0 25.8199 0 23.8999C0 21.9799 1.12 20.3099 2.84 19.5499C3.64 19.1999 4.57 19.5699 4.92 20.3599C5.27 21.1599 4.9 22.0899 4.11 22.4399C3.53 22.6899 3.16 23.2599 3.16 23.8899C3.16 24.5199 3.54 25.0999 4.13 25.3499L18.41 31.4299C18.98 31.6699 19.59 31.7899 20.22 31.7899C20.85 31.7899 21.46 31.6699 22.03 31.4299L36.31 25.3499C36.9 25.0999 37.28 24.5299 37.28 23.8899C37.28 23.2499 36.91 22.6899 36.33 22.4399C35.53 22.0899 35.17 21.1599 35.52 20.3599C35.87 19.5599 36.8 19.1999 37.6 19.5499C39.33 20.3099 40.44 22.0099 40.44 23.8999C40.44 25.7899 39.3 27.5299 37.53 28.2799C37.53 28.2799 23.25 34.3599 23.24 34.3599C22.28 34.7599 21.26 34.9599 20.21 34.9599H20.23Z" fill="black"/>
</g>
<defs>
<clipPath id="clip0_11_253">
<rect width="40.45" height="34.76" fill="white" transform="translate(0 0.199951)"/>
</clipPath>
</defs>
</svg>
