<svg width="41" height="41" viewBox="0 0 41 41" fill="none" xmlns="http://www.w3.org/2000/svg">
<g clip-path="url(#clip0_11_430)">
<path d="M38.92 9.5499L21.05 0.489899C20.25 0.0898991 19.31 0.0998991 18.52 0.509899L10.86 4.5799C10.8 4.6099 10.74 4.6399 10.68 4.6799L1.49 9.5499C0.57 10.0299 0 10.9799 0 12.0199V28.8399C0 29.8799 0.57 30.8199 1.49 31.3099L18.51 40.3399C18.91 40.5499 19.35 40.6599 19.8 40.6599C20.25 40.6599 20.65 40.5599 21.04 40.3699L38.91 31.3099C39.86 30.8399 40.45 29.8799 40.45 28.8199V12.0399C40.45 10.9799 39.86 10.0199 38.91 9.5499H38.92ZM19.62 2.6099C19.74 2.5499 19.87 2.5499 19.99 2.6099L36.71 11.0799L30.2 14.3199L13.85 5.6699L19.61 2.6099H19.62ZM18.6 37.7099L2.6 29.2099C2.46 29.1299 2.38 28.9899 2.38 28.8399V13.0899L18.61 21.5599V37.7099H18.6ZM19.8 19.4999L3.66 11.0899L11.33 7.0199L27.6 15.6299L19.81 19.5099L19.8 19.4999ZM38.09 28.8199C38.09 28.9799 38 29.1199 37.86 29.1899L20.97 37.7499V21.5699L28.74 17.6999V21.7599C28.74 22.4099 29.27 22.9399 29.92 22.9399C30.57 22.9399 31.1 22.4099 31.1 21.7599V16.5199L38.07 13.0499V28.8199H38.09Z" fill="black"/>
</g>
<defs>
<clipPath id="clip0_11_430">
<rect width="40.46" height="40.46" fill="white" transform="translate(0 0.199951)"/>
</clipPath>
</defs>
</svg>
