<svg width="26" height="47" viewBox="0 0 26 47" fill="none" xmlns="http://www.w3.org/2000/svg">
<g clip-path="url(#clip0_11_376)">
<g clip-path="url(#clip1_11_376)">
<path d="M20.16 0.199951H4.88C2.19 0.199951 0 2.38995 0 5.07995V41.2299C0 43.93 2.19 46.11 4.88 46.11H20.16C22.86 46.11 25.04 43.9199 25.04 41.2299V5.07995C25.04 2.38995 22.86 0.199951 20.16 0.199951ZM22.96 41.24C22.96 42.78 21.71 44.04 20.16 44.04H4.88C3.34 44.04 2.08 42.79 2.08 41.24V5.07995C2.08 3.53995 3.33 2.27995 4.88 2.27995H20.16C21.7 2.27995 22.96 3.52995 22.96 5.07995V41.2299V41.24Z" fill="black"/>
<path d="M15.65 4.37H9.38998C8.80998 4.37 8.34998 4.84 8.34998 5.41C8.34998 5.98 8.81998 6.45 9.38998 6.45H15.65C16.23 6.45 16.69 5.98 16.69 5.41C16.69 4.84 16.22 4.37 15.65 4.37Z" fill="black"/>
</g>
</g>
<defs>
<clipPath id="clip0_11_376">
<rect width="25.05" height="45.92" fill="white" transform="translate(0 0.199951)"/>
</clipPath>
<clipPath id="clip1_11_376">
<rect width="25.05" height="45.92" fill="white" transform="translate(0 0.199951)"/>
</clipPath>
</defs>
</svg>
